<?xml version="1.0" encoding="UTF-8" standalone="no"?>
<svg
   xmlns:dc="http://purl.org/dc/elements/1.1/"
   xmlns:cc="http://creativecommons.org/ns#"
   xmlns:rdf="http://www.w3.org/1999/02/22-rdf-syntax-ns#"
   xmlns:svg="http://www.w3.org/2000/svg"
   xmlns="http://www.w3.org/2000/svg"
   id="svg849"
   version="1.1"
   viewBox="0 0 6.3499998 6.3499998"
   height="24"
   width="24">
  
  <metadata
     id="metadata846">
    <rdf:RDF>
      <cc:Work
         rdf:about="">
        <dc:format>image/svg+xml</dc:format>
        <dc:type
           rdf:resource="http://purl.org/dc/dcmitype/StillImage" />
        <dc:title></dc:title>
      </cc:Work>
    </rdf:RDF>
  </metadata>
  <g
     transform="translate(0,-290.65)"
     id="layer1">
    <path
       id="rect971"
       d="m 2.4076082,290.91458 c -0.3027894,0 -0.5492173,0.2468 -0.5492173,0.54961 v 0.59713 H 0.31143715 v 0.10307 3.53329 h 0.0124749 v 0.0492 c 0,0.54084 0.40058343,0.98856 0.90669115,0.98856 h 3.8891844 c 0.5061079,-10e-6 0.9063027,-0.44777 0.9062822,-0.98856 v -0.0492 h 0.012475 v -3.63635 H 4.4911816 v -0.59713 c 0,-0.3028 -0.2468164,-0.54961 -0.5496057,-0.54961 z m 0,0.2053 H 3.941392 c 0.1928681,0 0.3458988,0.15144 0.3458988,0.34431 v 0.59713 H 2.063693 v -0.59713 c 0,-0.19287 0.151047,-0.34431 0.3439152,-0.34431 z m -1.8900714,1.14755 h 1.3408541 v 0.88671 H 2.063693 v -0.88671 h 2.2235978 v 0.88671 c 0,0 0.2310901,0.21911 0.2037069,0 v -0.88671 h 1.3412632 v 3.22414 h -0.012475 v 0.25522 c 0,0.44042 -0.3160821,0.78247 -0.7001823,0.78247 H 1.2304188 c -0.38410024,0 -0.70059144,-0.34209 -0.70059144,-0.78247 v -0.25522 h -0.01227 z"
       style="color:#000000;font-style:normal;font-variant:normal;font-weight:normal;font-stretch:normal;font-size:medium;line-height:normal;font-family:sans-serif;font-variant-ligatures:normal;font-variant-position:normal;font-variant-caps:normal;font-variant-numeric:normal;font-variant-alternates:normal;font-feature-settings:normal;text-indent:0;text-align:start;text-decoration:none;text-decoration-line:none;text-decoration-style:solid;text-decoration-color:#000000;letter-spacing:normal;word-spacing:normal;text-transform:none;writing-mode:lr-tb;direction:ltr;text-orientation:mixed;dominant-baseline:auto;baseline-shift:baseline;text-anchor:start;white-space:normal;shape-padding:0;clip-rule:nonzero;display:inline;overflow:visible;visibility:visible;opacity:1;isolation:auto;mix-blend-mode:normal;color-interpolation:sRGB;color-interpolation-filters:linearRGB;solid-color:#000000;solid-opacity:1;vector-effect:none;fill:#000000;fill-opacity:1;fill-rule:nonzero;color-rendering:auto;image-rendering:auto;shape-rendering:auto;text-rendering:auto;enable-background:accumulate" />
  </g>
</svg>
