<?xml version="1.0" encoding="UTF-8" standalone="no"?>
<svg
   xmlns:dc="http://purl.org/dc/elements/1.1/"
   xmlns:cc="http://creativecommons.org/ns#"
   xmlns:rdf="http://www.w3.org/1999/02/22-rdf-syntax-ns#"
   xmlns:svg="http://www.w3.org/2000/svg"
   xmlns="http://www.w3.org/2000/svg"
   id="svg849"
   version="1.1"
   viewBox="0 0 6.3499998 6.3499998"
   height="24"
   width="24">
  
  <metadata
     id="metadata846">
    <rdf:RDF>
      <cc:Work
         rdf:about="">
        <dc:format>image/svg+xml</dc:format>
        <dc:type
           rdf:resource="http://purl.org/dc/dcmitype/StillImage" />
        <dc:title></dc:title>
      </cc:Work>
    </rdf:RDF>
  </metadata>
  <g
     transform="translate(0,-290.65)"
     id="layer1">
    <path
       id="path898"
       d="m 4.8964844,291.23242 c -0.6451734,-0.17429 -1.090705,-0.04 -1.375,0.16992 -0.2285297,0.16877 -0.3035513,0.3408 -0.3671875,0.45704 -0.070837,-0.11725 -0.1574515,-0.28337 -0.390625,-0.44727 -0.2908188,-0.20443 -0.7322799,-0.33593 -1.3242188,-0.15234 -1.21384254,0.37644 -1.59881496,2.14517 -0.6191406,3.20898 8.4072e-4,9.7e-4 0.001112,9.8e-4 0.001953,0.002 0.91203288,1.05513 1.98775578,1.81152 2.23828128,1.98242 0.00821,0.007 0.016544,0.0135 0.029297,0.0215 0.015792,0.01 0.041967,0.0228 0.072266,0.0234 0.060596,0.001 0.085569,-0.0246 0.1152344,-0.043 h 0.00195 l 0.00195,-0.002 c 0.2593719,-0.17692 1.3418451,-0.99111 2.2363281,-1.98242 0.4664826,-0.51697 0.6421249,-1.23004 0.5390625,-1.86328 -0.1030624,-0.63324 -0.4959268,-1.19556 -1.1601562,-1.375 z m -0.054687,0.20508 c 0.5773076,0.15595 0.9130939,0.63511 1.0058593,1.20508 0.092765,0.56997 -0.069631,1.22158 -0.4882812,1.68554 -0.8720603,0.96646 -1.9481198,1.77614 -2.1894531,1.94141 -0.2492199,-0.17022 -1.3000687,-0.91191 -2.18750002,-1.93945 l -0.001953,-0.002 h -0.001953 c -0.88473638,-0.95634 -0.52083063,-2.54137 0.52343748,-2.86523 0.53779,-0.16679 0.8928422,-0.0498 1.1386719,0.12305 0.2458297,0.1728 0.3737012,0.40341 0.4238281,0.49023 L 3.15625,292.23633 3.25,292.07617 c 0.059572,-0.10318 0.1621094,-0.32742 0.3984375,-0.50195 0.2363281,-0.17453 0.5969956,-0.29783 1.1933594,-0.13672 z"
       style="color:#000000;font-style:normal;font-variant:normal;font-weight:normal;font-stretch:normal;font-size:medium;line-height:normal;font-family:sans-serif;font-variant-ligatures:normal;font-variant-position:normal;font-variant-caps:normal;font-variant-numeric:normal;font-variant-alternates:normal;font-feature-settings:normal;text-indent:0;text-align:start;text-decoration:none;text-decoration-line:none;text-decoration-style:solid;text-decoration-color:#000000;letter-spacing:normal;word-spacing:normal;text-transform:none;writing-mode:lr-tb;direction:ltr;text-orientation:mixed;dominant-baseline:auto;baseline-shift:baseline;text-anchor:start;white-space:normal;shape-padding:0;clip-rule:nonzero;display:inline;overflow:visible;visibility:visible;opacity:1;isolation:auto;mix-blend-mode:normal;color-interpolation:sRGB;color-interpolation-filters:linearRGB;solid-color:#000000;solid-opacity:1;vector-effect:none;fill:#000000;fill-opacity:1;fill-rule:nonzero;color-rendering:auto;image-rendering:auto;shape-rendering:auto;text-rendering:auto;enable-background:accumulate" />
  </g>
</svg>
