<?xml version="1.0" encoding="UTF-8" standalone="no"?>
<svg
   xmlns:dc="http://purl.org/dc/elements/1.1/"
   xmlns:cc="http://creativecommons.org/ns#"
   xmlns:rdf="http://www.w3.org/1999/02/22-rdf-syntax-ns#"
   xmlns:svg="http://www.w3.org/2000/svg"
   xmlns="http://www.w3.org/2000/svg"
   width="24"
   height="24"
   viewBox="0 0 6.3499998 6.3499998"
   version="1.1"
   id="svg849">
  
  <metadata
     id="metadata846">
    <rdf:RDF>
      <cc:Work
         rdf:about="">
        <dc:format>image/svg+xml</dc:format>
        <dc:type
           rdf:resource="http://purl.org/dc/dcmitype/StillImage" />
        <dc:title></dc:title>
      </cc:Work>
    </rdf:RDF>
  </metadata>
  <g
     
     id="layer1"
     transform="translate(0,-290.65)">
    <path
       id="path21"
       d="m 2.5820312,290.875 c -0.5933302,6e-5 -1.1866673,0.22566 -1.63867182,0.67773 -0.90412883,0.90402 -0.90395616,2.37316 0,3.27735 0.85882352,0.85895 2.20332842,0.84121 3.11328122,0.0684 l -0.00391,0.004 1.8730468,1.87305 0.1601563,-0.16016 -1.8417969,-1.84179 c 0.8579281,-0.90738 0.865204,-2.33219 -0.023437,-3.22071 -0.4520973,-0.45198 -1.0453416,-0.67779 -1.6386719,-0.67773 z m 0,0.22461 c 0.535036,-6e-5 1.0695937,0.20446 1.4785157,0.61328 0.8179135,0.8178 0.817918,2.13924 0,2.95703 -0.8177946,0.8179 -2.1411951,0.81791 -2.9589844,0 -0.81762823,-0.81783 -0.81778441,-2.13935 0,-2.95703 0.4088381,-0.4089 0.9454328,-0.61323 1.4804687,-0.61328 z"
       style="color:#000000;font-style:normal;font-variant:normal;font-weight:normal;font-stretch:normal;font-size:medium;line-height:normal;font-family:sans-serif;font-variant-ligatures:normal;font-variant-position:normal;font-variant-caps:normal;font-variant-numeric:normal;font-variant-alternates:normal;font-feature-settings:normal;text-indent:0;text-align:start;text-decoration:none;text-decoration-line:none;text-decoration-style:solid;text-decoration-color:#000000;letter-spacing:normal;word-spacing:normal;text-transform:none;writing-mode:lr-tb;direction:ltr;text-orientation:mixed;dominant-baseline:auto;baseline-shift:baseline;text-anchor:start;white-space:normal;shape-padding:0;clip-rule:nonzero;display:inline;overflow:visible;visibility:visible;opacity:1;isolation:auto;mix-blend-mode:normal;color-interpolation:sRGB;color-interpolation-filters:linearRGB;solid-color:#000000;solid-opacity:1;vector-effect:none;fill:#1a1a1a;fill-opacity:1;fill-rule:nonzero;color-rendering:auto;image-rendering:auto;shape-rendering:auto;text-rendering:auto;enable-background:accumulate" />
  </g>
</svg>
