<?xml version="1.0" encoding="UTF-8" standalone="no"?>
<svg
   xmlns:dc="http://purl.org/dc/elements/1.1/"
   xmlns:cc="http://creativecommons.org/ns#"
   xmlns:rdf="http://www.w3.org/1999/02/22-rdf-syntax-ns#"
   xmlns:svg="http://www.w3.org/2000/svg"
   xmlns="http://www.w3.org/2000/svg"
   id="svg849"
   version="1.1"
   viewBox="0 0 6.3499998 6.3499998"
   height="24"
   width="24">
  
  <metadata
     id="metadata846">
    <rdf:RDF>
      <cc:Work
         rdf:about="">
        <dc:format>image/svg+xml</dc:format>
        <dc:type
           rdf:resource="http://purl.org/dc/dcmitype/StillImage" />
        <dc:title></dc:title>
      </cc:Work>
    </rdf:RDF>
  </metadata>
  <g
     transform="translate(0,-290.65)"
     id="layer1">
    <path
       id="path863"
       d="m 3.1755639,290.97263 c -1.1144411,0 -2.0210185,0.90489 -2.0210185,2.01933 0,0.97769 0.6975958,2.00436 1.6213247,2.19036 H 1.8028498 c -0.89876192,0 -1.6431785,0.64327 -1.802849815000001,1.49504 H 0.22775224 c 0.15508491,-0.7291 0.79722706,-1.27068 1.57509756,-1.27068 h 2.7420454 c 0.777871,0 1.420827,0.54158 1.5762254,1.27068 H 6.35 C 6.1900412,295.82558 5.4436662,295.18232 4.5448952,295.18232 H 3.5752575 c 0.9234213,-0.186 1.6196333,-1.21267 1.6196333,-2.19036 0,-1.11444 -0.9048776,-2.01933 -2.0193269,-2.01933 z m 0,0.22324 c 0.9932702,0 1.7966486,0.80284 1.7966486,1.79609 0,0.99325 -0.8033784,2.00545 -1.7966486,2.00545 -0.9932621,0 -1.7966488,-1.0122 -1.7966488,-2.00545 0,-0.99325 0.8033867,-1.79609 1.7966488,-1.79609 z"
       style="color:#000000;font-style:normal;font-variant:normal;font-weight:normal;font-stretch:normal;font-size:medium;line-height:normal;font-family:sans-serif;font-variant-ligatures:normal;font-variant-position:normal;font-variant-caps:normal;font-variant-numeric:normal;font-variant-alternates:normal;font-feature-settings:normal;text-indent:0;text-align:start;text-decoration:none;text-decoration-line:none;text-decoration-style:solid;text-decoration-color:#000000;letter-spacing:normal;word-spacing:normal;text-transform:none;writing-mode:lr-tb;direction:ltr;text-orientation:mixed;dominant-baseline:auto;baseline-shift:baseline;text-anchor:start;white-space:normal;shape-padding:0;clip-rule:nonzero;display:inline;overflow:visible;visibility:visible;opacity:1;isolation:auto;mix-blend-mode:normal;color-interpolation:sRGB;color-interpolation-filters:linearRGB;solid-color:#000000;solid-opacity:1;vector-effect:none;fill:#000000;fill-opacity:1;fill-rule:nonzero;color-rendering:auto;image-rendering:auto;shape-rendering:auto;text-rendering:auto;enable-background:accumulate" />
  </g>
</svg>
