<?xml version="1.0" encoding="utf-8"?>
<!-- Generator: Adobe Illustrator 16.0.3, SVG Export Plug-In . SVG Version: 6.00 Build 0)  -->
<!DOCTYPE svg PUBLIC "-//W3C//DTD SVG 1.1//EN" "http://www.w3.org/Graphics/SVG/1.1/DTD/svg11.dtd">
<svg version="1.1" id="Warstwa_1" xmlns="http://www.w3.org/2000/svg" xmlns:xlink="http://www.w3.org/1999/xlink" x="0px" y="0px"
	 width="165px" height="60px" viewBox="-72.5 -23.427 165 60" enable-background="new -72.5 -23.427 165 60" xml:space="preserve">
<g>
	
		<linearGradient id="SVGID_1_" gradientUnits="userSpaceOnUse" x1="15556.5391" y1="-22358.668" x2="17887.2012" y2="-24689.3301" gradientTransform="matrix(0.0178 0 0 -0.0178 -287.9638 -413.1929)">
		<stop  offset="0" style="stop-color:#DBB87D"/>
		<stop  offset="1" style="stop-color:#C49A69"/>
	</linearGradient>
	<path fill="url(#SVGID_1_)" d="M29.642,25.606L29.642,25.606c-5.044,5.033-12.002,8.161-19.674,8.161
		c-7.67,0-14.631-3.128-19.664-8.161c-5.045-5.044-8.137-11.968-8.137-19.674c0-7.672,3.129-14.63,8.137-19.665
		c5.033-5.042,11.993-8.161,19.664-8.161c7.672,0,14.63,3.119,19.674,8.161c5.042,5.035,8.162,11.993,8.162,19.665
		C37.804,13.604,34.684,20.563,29.642,25.606 M9.968-23.427c-16.225,0-29.358,13.133-29.358,29.359
		c0,16.225,13.133,29.351,29.358,29.351c16.233,0,29.35-13.126,29.35-29.351C39.317-10.293,26.201-23.427,9.968-23.427z"/>
	
		<linearGradient id="SVGID_2_" gradientUnits="userSpaceOnUse" x1="15654.5742" y1="-22456.748" x2="17793.4199" y2="-24595.5957" gradientTransform="matrix(0.0178 0 0 -0.0178 -287.9638 -413.1929)">
		<stop  offset="0" style="stop-color:#DBB87D"/>
		<stop  offset="1" style="stop-color:#C49A69"/>
	</linearGradient>
	<path fill="url(#SVGID_2_)" d="M-4.405,24.759L-4.405,24.759c0.625-0.524,1.042-1.3,1.042-2.406l0,0c0-0.062,0-0.158,0-0.229
		c-0.061-1.007-0.587-1.597-1.167-1.883c-0.588-0.292-1.239-0.354-1.56-0.354c-0.098,0-0.168,0-0.195,0
		c-0.134,0.026-0.392,0.026-0.625,0.159c-0.222,0.099-0.481,0.32-0.481,0.678c0,0.036,0,0.099,0,0.134
		c0.027,0.392,0.321,0.614,0.776,0.587c0.259,0,0.587-0.068,0.981-0.132c0.027,0,0.097,0,0.124,0c0.455,0,1.105,0.489,1.105,1.398
		c0,0.098,0,0.193-0.027,0.33c-0.097,0.712-1.104,1.424-2.28,1.424c-0.615,0-1.265-0.194-1.854-0.685
		c-1.229-0.972-2.53-2.594-1.301-5.106c-4.286-0.222-5.292-5.844-3.216-8.9c0.687-1.006,2.085-2.022,3.867-2.022
		c0.356,0,0.747,0.035,1.176,0.098c1.879,0.329,2.663,1.532,2.663,2.639c0,0.781-0.428,1.521-1.167,1.816
		c-0.169,0.071-0.294,0.071-0.428,0.071c-0.516,0-1.041-0.33-1.497-0.366c-0.257,0-0.479,0.171-0.613,0.589
		c-0.037,0.098-0.037,0.196-0.037,0.294c0,0.714,0.811,1.203,1.729,1.203c0.776,0,1.659-0.32,2.308-1.169
		c0.419-0.522,0.65-1.335,0.65-2.208c0-0.747-0.169-1.533-0.623-2.183C-5.901,7.269-7.487,6.68-9.18,6.68
		c-0.491,0-0.944,0.063-1.435,0.134c-2.727,0.482-4.678,2.924-4.678,6.272c0,1.265,0.295,2.666,0.908,4.126
		c2.051,4.847,4.162,6.958,5.793,7.869c0.58,0.329,1.229,0.488,1.916,0.488C-5.831,25.534-5.019,25.276-4.405,24.759 M9.968,9.346
		L9.968,9.346L9.968,9.346L9.968,9.346l0.098-0.225c0.688-1.398,1.889-2.503,3.352-3.091l0.257-0.098l0,0l0,0l0,0l0,0l-0.257-0.098
		c-1.463-0.58-2.664-1.694-3.352-3.083L9.968,2.519l0,0l0,0L9.87,2.751C9.193,4.141,7.989,5.255,6.52,5.834L6.262,5.932l0,0
		L6.52,6.03c1.47,0.587,2.674,1.692,3.351,3.091L9.968,9.346z M33.079,12.473L33.079,12.473c0-1.079-0.426-1.853-0.426-1.89
		c0,0-1.142-2.345-3.494-2.345c-0.32,0-0.694,0.037-1.052,0.17c-1.586,0.455-2.172,1.391-2.172,2.212
		c0,0.614,0.355,1.165,0.907,1.229c0.071,0,0.143,0,0.162,0c0.711,0,0.872-0.481,0.908-0.944c0.071-0.481,0.105-0.972,0.534-1.229
		c0.214-0.134,0.678-0.295,1.157-0.295c0.59,0,1.194,0.195,1.658,0.847c0.535,0.775,0.855,1.622,0.82,2.246
		c-0.072,2.529-2.64,3.732-4.297,3.865c-3.58,0.322-4.971-1.14-5.611-2.733c-0.748,3.092-5.115,2.957-6.683,2.28
		c-1.586-0.687-2.21-2.048-2.21-3.322c0-0.482,0.168-0.937,0.553-1.328c0.454-0.455,0.848-0.591,1.175-0.591
		c0.385,0,0.715,0.233,1.007,0.456c0.322,0.232,0.588,0.49,0.908,0.526c0.063,0,0.101,0,0.162-0.036
		c0.392-0.132,0.588-0.393,0.588-0.713c0-0.748-0.981-1.595-2.344-1.595c-0.124,0-0.295,0-0.454,0.035
		c-1.595,0.224-2.53,1.685-2.53,3.279l0,0c0,0.945,0.321,1.95,1.006,2.764c1.524,1.826,5.881,1.984,7.771,1.984
		c0.519,0,5.756,0.49,8.535-0.648C32.475,15.626,33.079,13.799,33.079,12.473z M16.177,12.731L16.177,12.731
		c0.134-0.099,0.295-0.169,0.357-0.393c0.036-0.099,0.036-0.197,0.036-0.295c0-0.195-0.062-0.356-0.196-0.454
		c-0.133-0.099-0.294-0.16-0.419-0.16c-0.489,0-1.113,0.419-1.238,1.239c-0.034,0.16-0.034,0.356-0.034,0.516
		c0,1.104,0.648,1.889,1.888,2.271c0.418,0.134,0.848,0.196,1.265,0.196c0.908,0,1.811-0.32,2.504-0.971
		c0.694-0.686,1.104-1.729,1.104-3.127c0-0.518-0.054-1.104-0.195-1.721c-0.197-0.971-0.821-2.44-0.873-3.902
		c0.018-1.461,0.658-2.922,0.873-3.903c0.142-0.615,0.195-1.203,0.195-1.72c0-1.434-0.41-2.467-1.104-3.117
		c-0.693-0.687-1.596-0.98-2.504-0.98c-0.417,0-0.873,0.062-1.265,0.196c-1.239,0.393-1.888,1.167-1.888,2.271
		c0,0.17,0,0.33,0.034,0.526c0.125,0.812,0.749,1.24,1.238,1.24c0.161,0,0.321-0.072,0.419-0.17
		c0.098-0.098,0.196-0.258,0.196-0.454c0-0.099,0-0.197-0.036-0.295c-0.063-0.222-0.224-0.293-0.357-0.382
		c-0.123-0.098-0.195-0.169-0.195-0.392c0-0.098,0-0.196,0.072-0.33c0.188-0.749,1.033-1.042,1.462-1.007
		c1.684,0,2.7,1.399,2.7,3.155c0,0.49-0.145,1.657-0.5,2.405c-0.614,1.266-1.551,2.54-3.049,2.994l0,0
		c1.498,0.455,2.435,1.755,3.049,2.993c0.355,0.74,0.5,1.917,0.5,2.407c0,1.756-1.017,3.145-2.7,3.145
		c-0.393,0-1.274-0.258-1.462-1.033c-0.037-0.134-0.072-0.259-0.072-0.355C15.981,12.891,16.054,12.829,16.177,12.731z
		 M-12.077,6.03L-12.077,6.03l0.232-0.098l-0.232-0.098c-1.852-0.749-3.349-2.175-4.16-3.965l-0.198-0.419l-0.061,0.455
		c-0.161,1.265-0.258,2.601-0.258,3.902c0,0.027,0,0.063,0,0.09c0,0.035,0,0.07,0,0.098c0,1.336,0.098,2.637,0.258,3.903
		l0.061,0.454l0.198-0.419C-15.426,8.177-13.928,6.743-12.077,6.03z M36.716,5.932L36.716,5.932c0-0.035,0-0.063,0-0.098
		c0-1.329-0.089-2.628-0.248-3.903l-0.072-0.455l-0.179,0.428c-0.819,1.781-2.315,3.216-4.171,3.965l-0.231,0.098l0,0l0.231,0.098
		c1.855,0.748,3.352,2.173,4.171,3.966l0.179,0.419l0.072-0.456c0.159-1.265,0.248-2.601,0.248-3.901
		C36.716,5.995,36.716,5.967,36.716,5.932z M-2.97,25.346L-2.97,25.346l0.036-0.231l-0.169,0.135
		c-1.008,0.81-2.273,1.203-3.538,1.068l-0.295-0.034l0.224,0.169c0.685,0.553,1.434,1.033,2.245,1.488
		c0.749,0.427,1.533,0.784,2.308,1.104l0.293,0.098l-0.159-0.225C-2.809,27.94-3.165,26.639-2.97,25.346z M30.551,6.778
		L30.551,6.778c-0.5-0.099-0.98-0.135-1.426-0.135c-1.692,0-3.261,0.554-4.135,1.854c-0.427,0.65-0.605,1.435-0.605,2.184
		c0,0.845,0.249,1.657,0.641,2.209c0.641,0.847,1.533,1.167,2.317,1.167c0.891,0,1.676-0.48,1.71-1.203c0-0.097,0-0.186-0.034-0.292
		c-0.126-0.384-0.357-0.58-0.607-0.58c-0.427,0-0.963,0.356-1.461,0.356c-0.178,0-0.304-0.036-0.429-0.063
		c-0.748-0.294-1.175-1.009-1.175-1.826c0-1.104,0.783-2.308,2.672-2.629c0.429-0.071,0.82-0.099,1.177-0.099
		c1.781,0,3.172,1.007,3.851,2.015c2.066,3.056,1.051,8.714-3.21,8.91c1.231,2.503-0.071,4.125-1.301,5.104
		c-0.587,0.482-1.229,0.677-1.852,0.677c-1.177,0-2.191-0.711-2.282-1.424c-0.017-0.102-0.017-0.232-0.017-0.332
		c0-0.872,0.641-1.397,1.122-1.397c0.036,0,0.088,0,0.125,0c0.428,0.1,0.749,0.133,1.015,0.133c0.446,0,0.714-0.195,0.748-0.587
		c0-0.027,0-0.099,0-0.125c0-0.355-0.232-0.553-0.48-0.686c-0.268-0.099-0.533-0.125-0.658-0.161c-0.019,0-0.089,0-0.196,0
		c-0.322,0-0.963,0.063-1.567,0.356c-0.571,0.293-1.106,0.882-1.16,1.89c0,0.062,0,0.16,0,0.224l0,0
		c0,1.078,0.409,1.889,1.053,2.404c0.605,0.525,1.424,0.749,2.262,0.749c0.696,0,1.372-0.162,1.908-0.49
		c1.673-0.91,3.777-3.021,5.809-7.87c0.606-1.46,0.891-2.858,0.891-4.123C35.254,9.737,33.311,7.296,30.551,6.778z M17.345,20.598
		L17.345,20.598c-0.356,0-0.74,0.028-1.132,0.161c-1.852,0.517-2.504,2.014-2.504,3.251c0,0.973,0.393,1.819,1.042,1.854h0.027
		c0.749-0.035,1.043-0.33,1.043-0.75c0-0.489-0.329-1.104-0.329-1.655c0-0.357,0.098-0.651,0.489-0.944
		c0.329-0.259,0.847-0.419,1.437-0.419c0.846,0,1.762,0.356,2.298,1.265c0.533,0.909,0.748,1.721,0.748,2.504
		c0,2.628-2.041,4.713-4.679,5.008c-1.585,0.195-4.74-0.553-5.781-2.797v-0.102c0,0,0,0,0-0.033c0,0,0,0.033-0.036,0.033V27.94
		c0,0,0,0-0.026,0.033v0.102c-1.043,2.244-4.197,2.956-5.793,2.797c-2.637-0.295-4.677-2.38-4.677-5.008
		c0-0.75,0.223-1.595,0.739-2.504c0.554-0.945,1.472-1.265,2.317-1.265c0.581,0,1.132,0.16,1.426,0.419
		c0.355,0.293,0.49,0.612,0.49,0.944c0,0.551-0.33,1.166-0.33,1.655c0,0.42,0.294,0.715,1.042,0.75h0.036
		c0.65-0.035,1.006-0.882,1.042-1.854c0-1.237-0.65-2.734-2.478-3.251c-0.392-0.099-0.775-0.161-1.141-0.161
		c-2.788,0-4.089,3.02-4.089,3.02S-1.83,24.5-1.83,25.703c0,1.72,0.712,4.091,4.127,5.622c1.985,0.874,6.503,0.91,7.644,0.91
		c0.026,0,0.026,0,0.063,0c0,0,0.025,0,0.062,0c1.141,0,5.659-0.036,7.645-0.91c3.413-1.496,4.126-3.902,4.126-5.622
		c0-1.203-0.356-2.086-0.356-2.086C21.443,23.617,20.143,20.598,17.345,20.598z M23.065,25.276L23.065,25.276l-0.16-0.126
		l0.034,0.223c0.162,1.266-0.159,2.601-0.908,3.645l-0.159,0.223l0.303-0.098c0.765-0.286,1.551-0.678,2.299-1.106
		c0.766-0.453,1.514-0.934,2.227-1.487l0.25-0.169l-0.304,0.037C25.347,26.452,24.081,26.085,23.065,25.276z M2.616,22.745
		L2.616,22.745c-0.577,0-1.228,0.295-1.851,1.104c-0.519,0.715-0.74,1.427-0.74,2.049c0,1.204,0.74,2.113,0.97,2.407
		c0.259,0.285,1.498,1.585,3.413,1.585c1.042,0,3.289-0.65,4.258-2.985c0.884-2.119,1.399-5.657-0.775-8.685
		c2.434-3.806,1.684-7.504-0.357-9.392C6.59,7.946,5.547,7.75,4.638,7.75c-2.379,0-4.133,2.049-4.16,3.546c0,0.036,0,0.071,0,0.071
		c0,1.558,1.204,2.432,2.014,2.432c0.321,0,0.588-0.123,0.687-0.454c0.026-0.125,0.026-0.222,0.026-0.293
		c0-0.419-0.356-0.579-0.65-0.749c-0.321-0.161-0.65-0.356-0.812-0.845c-0.034-0.126-0.061-0.224-0.061-0.358
		c0-0.517,0.292-1.105,0.775-1.559c0.489-0.454,1.202-0.812,2.049-0.812c0.649,0,1.399,0.23,2.182,0.749
		c1.524,1.008,3.253,6.369-1.299,8.385c4.579,2.377,3.082,9.168,1.399,10.11c-0.946,0.519-1.792,0.714-2.479,0.714
		c-1.265,0-2.147-0.651-2.53-1.104c-0.294-0.355-0.489-0.907-0.489-1.425c0-0.527,0.194-1.044,0.684-1.338
		c0.357-0.221,0.775-0.195,1.169-0.256c0.391-0.064,0.714-0.295,0.714-0.947h-0.1h0.1v-0.024
		C3.829,23.127,3.303,22.745,2.616,22.745z M-7.941,10.94L-7.941,10.94c0.026,0.453,0.187,0.943,0.909,0.943
		c0.026,0,0.097,0,0.161,0c0.516-0.035,0.909-0.588,0.909-1.24c0-0.81-0.581-1.78-2.175-2.208c-0.393-0.099-0.722-0.16-1.078-0.16
		c-2.371,0-3.512,2.345-3.512,2.345s-0.417,0.773-0.417,1.879c0,1.3,0.615,3.153,3.375,4.259c2.797,1.142,8.037,0.649,8.554,0.649
		c1.888,0,6.238-0.16,7.77-1.978c0.685-0.818,1.006-1.825,1.006-2.761l0,0c0-1.597-0.909-3.066-2.505-3.289
		c-0.16-0.034-0.292-0.034-0.454-0.034c-1.364,0-2.344,0.881-2.344,1.595c0,0.294,0.198,0.586,0.589,0.712
		c0.062,0.035,0.098,0.035,0.16,0.035c0.331,0,0.589-0.258,0.882-0.517c0.295-0.267,0.651-0.454,1.007-0.454
		c0.321,0,0.688,0.123,1.167,0.579c0.393,0.392,0.589,0.846,0.589,1.337c0,1.267-0.615,2.628-2.209,3.313
		c-1.56,0.687-5.917,0.812-6.665-2.271c-0.651,1.621-2.014,3.057-5.622,2.725c-1.658-0.159-4.233-1.36-4.295-3.866
		c-0.035-0.614,0.293-1.462,0.81-2.244c0.428-0.615,1.079-0.849,1.657-0.849c0.491,0,0.945,0.134,1.176,0.296
		C-8.012,9.97-7.977,10.45-7.941,10.94z M5.093,26.452L5.093,26.452c-0.07,0-0.098,0-0.16,0c-0.49-0.072-0.882-0.268-1.202-0.489
		C3.4,25.73,3.179,25.507,2.849,25.507c0,0-0.035,0-0.062,0c-0.196,0.027-0.527,0.161-0.722,0.552
		c-0.063,0.126-0.09,0.259-0.09,0.394c0,0.872,1.205,1.623,2.495,1.623c1.337,0,2.834-0.848,3.324-3.289
		c0.062-0.383,0.125-0.74,0.125-1.068l0,0c0-1.917-1.131-3.155-2.567-4.126c-1.854-1.238-4.491-1.47-6.504-1.47
		c-0.124,0-0.223,0-0.356,0c-0.972,0-4.028-0.028-5.587,0.425c-0.979,0.297-2.245,1.339-2.245,2.765
		c0,0.454,0.125,0.979,0.481,1.496c0.49,0.748,1.273,1.042,2.022,1.042c0.909,0,1.782-0.452,1.782-1.104
		c0-0.097-0.027-0.23-0.097-0.364c-0.197-0.42-0.419-0.553-0.678-0.553c-0.33,0-0.651,0.195-1.105,0.195
		c-0.133,0-0.23,0-0.392-0.026c-0.454-0.098-0.712-0.526-0.712-1.042c0-1.069,1.104-1.756,2.663-1.854
		c1.757-0.097,3.707,0.134,3.707,2.05c3.352-3.349,7.904-1.398,8.357,1.72c0.063,0.455,0.161,0.848,0.161,1.238
		C6.849,25.507,6.163,26.452,5.093,26.452z M27.162,5.932L27.162,5.932c-1.852-0.677-2.777-2.566-3.081-4.358
		c-0.054-0.293-0.089-0.613-0.089-0.908c0-1.791,0.926-3.35,3.064-3.35c0.105,0,0.213,0,0.304,0
		c1.621,0.098,2.281,0.944,2.281,1.756c0,0.035,0,0.098,0,0.133c-0.071,0.554-0.269,0.677-0.482,0.812
		c-0.248,0.097-0.57,0.16-0.604,0.552c0,0.062,0,0.134,0,0.196c0,0.258,0.07,0.454,0.248,0.588c0.108,0.125,0.322,0.195,0.5,0.195
		c0.66,0,1.463-0.587,1.674-1.63c0.036-0.196,0.072-0.393,0.072-0.614c0-1.337-0.821-2.834-2.993-3.216
		c-0.302-0.072-0.607-0.072-0.894-0.072c-1.175,0-2.279,0.392-3.081,1.177c-0.803,0.774-1.372,1.915-1.372,3.412
		c0,0.481,0.071,1.007,0.179,1.559c0.249,1.141,0.838,2.539,0.891,3.769C23.726,7.17,23.137,8.569,22.888,9.7
		c-0.144,0.555-0.179,1.079-0.179,1.567c0,1.49,0.535,2.632,1.372,3.414c0.802,0.774,1.941,1.166,3.081,1.166
		c0.286,0,0.592-0.034,0.894-0.06c2.172-0.393,2.993-1.889,2.993-3.226c0-0.188-0.036-0.421-0.072-0.616
		c-0.211-1.006-1.014-1.621-1.674-1.621c-0.178,0-0.392,0.061-0.5,0.195c-0.142,0.123-0.248,0.319-0.248,0.579
		c0,0.071,0,0.135,0,0.196c0.07,0.356,0.356,0.426,0.604,0.553c0.214,0.134,0.445,0.258,0.482,0.82c0,0.025,0,0.089,0,0.124
		c0,0.812-0.66,1.656-2.281,1.754c-0.091,0-0.198,0-0.304,0c-2.139,0-3.064-1.558-3.064-3.35c0-0.293,0.035-0.614,0.089-0.907
		C24.385,8.498,25.311,6.618,27.162,5.932z M27.27,21.961L27.27,21.961c-0.141,0.036-0.265,0.036-0.355,0.036
		c-0.463,0-0.784-0.196-1.105-0.196c-0.266,0-0.498,0.16-0.676,0.552c-0.07,0.1-0.107,0.224-0.107,0.357
		c0.037,0.65,0.873,1.104,1.782,1.104c0.714,0,1.532-0.293,2.031-1.042c0.32-0.517,0.464-1.007,0.464-1.497
		c0-1.426-1.247-2.47-2.246-2.764c-1.55-0.454-4.598-0.418-5.577-0.418c-0.09,0-0.231,0-0.339,0c-1.995,0-4.632,0.224-6.486,1.463
		c-1.436,0.97-2.575,2.209-2.575,4.125l0,0c0,0.328,0.035,0.685,0.134,1.077c0.489,2.433,1.951,3.277,3.314,3.277
		c1.301,0,2.504-0.736,2.504-1.619c0-0.134-0.036-0.259-0.097-0.394c-0.198-0.393-0.517-0.517-0.715-0.551c-0.035,0-0.035,0-0.063,0
		c-0.293,0-0.553,0.23-0.881,0.454c-0.321,0.231-0.687,0.453-1.203,0.49c-0.063,0-0.135,0-0.161,0c-1.043,0-1.754-0.944-1.754-2.345
		c0-0.391,0.124-0.774,0.159-1.229c0.418-3.126,5.008-5.079,8.357-1.728c-0.033-1.917,1.925-2.177,3.672-2.05
		c1.532,0.098,2.672,0.783,2.672,1.854C27.984,21.443,27.698,21.862,27.27,21.961z M-9.146,11.849L-9.146,11.849
		c0.225-0.099,0.554-0.161,0.58-0.553c0-0.062,0-0.125,0-0.196c0-0.26-0.063-0.456-0.224-0.579c-0.132-0.135-0.33-0.195-0.524-0.195
		c-0.65,0-1.462,0.579-1.657,1.621c-0.027,0.195-0.063,0.393-0.063,0.616c0,1.337,0.811,2.833,2.995,3.226
		c0.285,0.025,0.579,0.06,0.873,0.06c1.177,0,2.281-0.392,3.092-1.166c0.81-0.782,1.362-1.924,1.362-3.414
		c0-0.488-0.062-1.013-0.161-1.567C-3.13,8.569-3.718,7.17-3.78,5.932c0.062-1.23,0.65-2.628,0.908-3.769
		c0.125-0.552,0.161-1.078,0.161-1.559c0-1.497-0.517-2.638-1.362-3.412c-0.811-0.785-1.953-1.177-3.092-1.177
		c-0.294,0-0.588,0.036-0.873,0.072c-2.184,0.356-2.995,1.879-2.995,3.216c0,0.196,0.037,0.418,0.063,0.614
		c0.195,1.008,1.007,1.63,1.657,1.63c0.195,0,0.393-0.071,0.524-0.195c0.126-0.134,0.224-0.33,0.224-0.588c0-0.063,0-0.135,0-0.196
		c-0.063-0.356-0.355-0.42-0.58-0.552c-0.23-0.135-0.462-0.258-0.489-0.812c0-0.035,0-0.098,0-0.133c0-0.812,0.65-1.658,2.271-1.756
		c0.1,0,0.197,0,0.294,0c2.146,0,3.092,1.56,3.092,3.35c0,0.295-0.036,0.615-0.097,0.908C-4.405,3.366-5.35,5.219-7.166,5.932l0,0
		c1.853,0.686,2.798,2.566,3.092,4.358c0.061,0.293,0.097,0.614,0.097,0.907c0,1.792-0.946,3.35-3.092,3.35
		c-0.097,0-0.195,0-0.294,0c-1.621-0.098-2.271-0.942-2.271-1.754c0-0.035,0-0.099,0-0.124C-9.608,12.08-9.411,11.946-9.146,11.849z
		 M16.864,24.6L16.864,24.6c0.355,0.063,0.775,0.025,1.167,0.258c0.489,0.293,0.687,0.773,0.687,1.327
		c0,0.524-0.197,1.077-0.491,1.436c-0.392,0.455-1.265,1.104-2.539,1.104c-0.678,0-1.523-0.195-2.469-0.713
		c-1.69-0.909-3.189-7.743,1.399-10.112c-4.553-2.015-2.825-7.379-1.301-8.386c0.784-0.525,1.524-0.747,2.175-0.747
		c0.847,0,1.533,0.32,2.023,0.809c0.479,0.456,0.774,1.068,0.774,1.561c0,0.132-0.026,0.258-0.063,0.355
		c-0.161,0.491-0.49,0.688-0.809,0.848c-0.331,0.16-0.651,0.33-0.651,0.747c0,0.099,0,0.196,0.062,0.295
		c0.097,0.295,0.356,0.456,0.688,0.456c0.81,0,2.021-0.885,2.021-2.443c0-0.026,0-0.062,0-0.062
		c-0.036-1.498-1.801-3.511-4.17-3.547c-0.944,0-1.95,0.197-2.896,1.078c-2.05,1.88-2.797,5.586-0.356,9.392
		c-2.173,3.021-1.693,6.565-0.784,8.678c0.979,2.308,3.227,2.995,4.26,2.995c1.926,0,3.153-1.302,3.422-1.596
		c0.258-0.296,0.971-1.203,0.971-2.405c0-0.616-0.197-1.327-0.713-2.049c-0.587-0.813-1.274-1.105-1.852-1.105
		c-0.688,0-1.205,0.427-1.205,0.909v0.036h0.098h-0.098C16.143,24.305,16.472,24.564,16.864,24.6z M3.303,5.932L3.303,5.932
		C1.806,5.478,0.861,4.177,0.246,2.938c-0.356-0.74-0.49-1.916-0.49-2.406c0-1.756,1.043-3.154,2.736-3.154
		c0.391,0,1.265,0.268,1.461,1.016c0.037,0.124,0.062,0.258,0.062,0.32c0,0.231-0.097,0.294-0.186,0.392
		C3.695-0.795,3.534-0.733,3.464-0.5C3.437-0.403,3.437-0.305,3.437-0.216c0,0.196,0.062,0.364,0.195,0.464
		c0.125,0.097,0.258,0.16,0.419,0.16c0.49,0,1.104-0.428,1.239-1.239c0.026-0.161,0.026-0.356,0.026-0.517
		c0-1.105-0.652-1.889-1.88-2.281C3.008-3.753,2.591-3.816,2.162-3.816c-0.908,0-1.816,0.321-2.502,0.971
		c-0.678,0.687-1.133,1.72-1.133,3.119c0,0.526,0.063,1.104,0.198,1.728c0.195,0.972,0.809,2.433,0.872,3.895
		c-0.027,1.469-0.65,2.932-0.872,3.902c-0.134,0.624-0.198,1.203-0.198,1.728c0,1.426,0.455,2.47,1.133,3.119
		c0.686,0.687,1.594,0.98,2.502,0.98c0.429,0,0.882-0.07,1.275-0.196c1.228-0.39,1.88-1.176,1.88-2.281
		c0-0.159-0.026-0.319-0.026-0.516c-0.134-0.812-0.749-1.239-1.239-1.239c-0.161,0-0.32,0.036-0.454,0.161
		C3.464,11.652,3.4,11.821,3.4,12.008c0,0.099,0.037,0.198,0.037,0.295c0.062,0.231,0.223,0.294,0.355,0.392
		c0.126,0.099,0.198,0.16,0.198,0.392c0,0.099,0,0.196-0.072,0.357c-0.187,0.748-1.035,1.042-1.46,1.042
		c-1.693,0-2.701-1.399-2.728-3.153c0-0.492,0.125-1.657,0.48-2.405C0.861,7.688,1.806,6.386,3.303,5.932z M29.604,2.457
		L29.604,2.457c-0.479,0-0.943-0.133-1.157-0.294c-0.463-0.258-0.463-0.749-0.534-1.238C27.877,0.47,27.716-0.02,27.005-0.02
		c-0.055,0-0.091,0-0.162,0c-0.516,0.036-0.907,0.588-0.907,1.238c0,0.811,0.586,1.791,2.172,2.209
		c0.357,0.099,0.731,0.161,1.052,0.161c2.353,0,3.494-2.334,3.494-2.334s0.426-0.784,0.426-1.889c0-1.301-0.604-3.119-3.384-4.259
		c-2.816-1.141-8.021-0.651-8.572-0.651c-1.89,0-6.246,0.161-7.771,1.987c-0.685,0.811-1.006,1.817-1.006,2.762l0,0
		c0,1.596,0.909,3.056,2.495,3.279c0.168,0.036,0.294,0.036,0.464,0.036c1.361,0,2.334-0.881,2.334-1.594
		c0-0.321-0.198-0.58-0.58-0.713c-0.071-0.036-0.098-0.036-0.168-0.036c-0.321,0-0.581,0.268-0.875,0.526
		c-0.292,0.223-0.622,0.455-1.007,0.455c-0.327,0-0.685-0.134-1.175-0.588c-0.385-0.392-0.553-0.847-0.553-1.337
		c0-1.265,0.624-2.628,2.21-3.314c1.567-0.677,5.935-0.847,6.683,2.282c0.641-1.631,1.996-3.057,5.611-2.736
		c1.657,0.161,4.225,1.363,4.297,3.867c0,0.65-0.285,1.497-0.82,2.244C30.799,2.261,30.194,2.457,29.604,2.457z M14.842-14.579
		L14.842-14.579c0.07,0,0.134,0,0.168,0c0.482,0.063,0.876,0.259,1.203,0.481c0.321,0.232,0.58,0.463,0.874,0.463
		c0.036,0,0.036,0,0.07,0c0.188-0.035,0.553-0.169,0.712-0.552c0.065-0.133,0.1-0.268,0.1-0.392c-0.034-0.882-1.202-1.63-2.503-1.63
		c-1.338,0-2.833,0.845-3.314,3.288c-0.1,0.392-0.134,0.748-0.134,1.068l0,0c0,1.926,1.141,3.155,2.564,4.135
		c1.854,1.229,4.492,1.462,6.506,1.462c0.088,0,0.231,0,0.339,0c0.962,0,4.026,0.035,5.578-0.427
		c0.979-0.286,2.244-1.329,2.244-2.763c0-0.454-0.124-0.971-0.48-1.497c-0.499-0.749-1.284-1.034-2.033-1.034
		c-0.891,0-1.78,0.455-1.78,1.105c0,0.125,0.035,0.223,0.107,0.356c0.177,0.418,0.425,0.553,0.675,0.553
		c0.322,0,0.644-0.196,1.105-0.196c0.143,0,0.214,0,0.357,0.036c0.463,0.097,0.713,0.516,0.713,1.033
		c0,1.078-1.105,1.755-2.674,1.853c-1.747,0.099-3.706-0.124-3.671-2.049c-3.342,3.351-7.921,1.399-8.35-1.72
		c-0.061-0.455-0.158-0.847-0.158-1.238C13.121-13.608,13.808-14.579,14.842-14.579z M17.345-10.872L17.345-10.872
		c0.59,0,1.238-0.295,1.854-1.105c0.517-0.721,0.73-1.434,0.73-2.049c0-1.202-0.73-2.111-0.99-2.405
		c-0.257-0.295-1.498-1.595-3.412-1.595c-1.042,0-3.279,0.65-4.258,2.959c-0.876,2.111-1.399,5.657,0.782,8.677
		c-2.439,3.805-1.692,7.512,0.356,9.401c0.944,0.873,1.978,1.069,2.897,1.069c2.369,0,4.125-2.049,4.158-3.546
		c0-0.027,0-0.063,0-0.063c0-1.559-1.2-2.433-2.022-2.433c-0.318,0-0.577,0.125-0.675,0.455c-0.036,0.099-0.073,0.187-0.073,0.285
		c0,0.428,0.366,0.553,0.651,0.748c0.33,0.17,0.65,0.357,0.82,0.847c0.026,0.134,0.062,0.232,0.062,0.357
		c0,0.525-0.292,1.104-0.785,1.568c-0.479,0.455-1.2,0.811-2.014,0.811c-0.649,0-1.397-0.232-2.172-0.748
		c-1.533-1.007-3.252-6.372,1.326-8.394c-4.578-2.371-3.08-9.168-1.397-10.104c0.943-0.525,1.791-0.722,2.476-0.722
		c1.265,0,2.147,0.651,2.531,1.105c0.294,0.356,0.491,0.908,0.491,1.434c0,0.517-0.197,1.042-0.688,1.327
		c-0.382,0.232-0.811,0.196-1.167,0.268c-0.392,0.063-0.686,0.294-0.712,0.944h0.097h-0.097v0.027
		C16.143-11.265,16.667-10.872,17.345-10.872z M-13.118-0.599L-13.118-0.599c0,1.069,0.426,1.853,0.426,1.88
		c0,0,1.141,2.343,3.512,2.343c0.32,0,0.685-0.036,1.069-0.16c1.595-0.455,2.183-1.399,2.183-2.21c0-0.625-0.356-1.176-0.909-1.238
		c-0.072,0-0.099,0-0.169,0c-0.714,0-0.874,0.489-0.909,0.944C-7.977,1.45-7.977,1.932-8.431,2.199
		c-0.232,0.125-0.688,0.285-1.177,0.285c-0.58,0-1.229-0.187-1.658-0.846c-0.517-0.776-0.838-1.621-0.811-2.236
		c0.064-2.504,2.639-3.743,4.295-3.876c3.573-0.321,4.972,1.14,5.623,2.735c0.749-3.091,5.105-2.958,6.665-2.272
		c1.595,0.678,2.21,2.049,2.21,3.315c0,0.481-0.161,0.945-0.58,1.327C5.682,1.085,5.29,1.219,4.959,1.219
		c-0.392,0-0.712-0.224-1.006-0.454C3.659,0.533,3.4,0.248,3.081,0.248c-0.072,0-0.099,0-0.17,0.026
		c-0.383,0.134-0.58,0.392-0.58,0.721c0,0.74,0.972,1.587,2.333,1.587c0.135,0,0.295,0,0.466-0.027
		c1.585-0.231,2.492-1.693,2.492-3.288l0,0c0-0.945-0.319-1.951-1.006-2.762C5.093-5.312,0.738-5.482-1.152-5.482
		c-0.517,0-5.756-0.481-8.543,0.651C-12.495-3.753-13.118-1.936-13.118-0.599z M24.385-12.895L24.385-12.895
		c-0.644,0.525-1.053,1.3-1.053,2.406l0,0c0,0.071,0,0.169,0,0.231c0.054,1.007,0.589,1.595,1.16,1.89
		c0.604,0.293,1.245,0.355,1.567,0.355c0.107,0,0.178,0,0.196,0c0.125,0,0.391-0.035,0.658-0.161c0.215-0.097,0.48-0.329,0.48-0.686
		c0-0.035,0-0.098,0-0.133c-0.034-0.384-0.338-0.616-0.748-0.58c-0.266,0-0.587,0.063-1.015,0.125c-0.037,0-0.089,0-0.125,0
		c-0.481,0-1.122-0.48-1.122-1.399c0-0.098,0-0.196,0.017-0.321c0.091-0.712,1.105-1.434,2.282-1.434
		c0.623,0,1.265,0.195,1.852,0.686c1.229,0.971,2.532,2.602,1.301,5.104c4.278,0.224,5.294,5.855,3.21,8.911
		c-0.679,1.007-2.069,2.013-3.851,2.013c-0.356,0-0.748-0.035-1.177-0.097c-1.889-0.331-2.672-1.533-2.672-2.638
		c0-0.811,0.427-1.523,1.175-1.817C26.646-0.5,26.808-0.5,26.95-0.5c0.534,0,1.034,0.321,1.461,0.356c0.25,0,0.5-0.161,0.607-0.589
		c0.034-0.098,0.034-0.195,0.034-0.293c0-0.713-0.819-1.203-1.71-1.203c-0.784,0-1.677,0.329-2.317,1.176
		c-0.428,0.517-0.641,1.328-0.641,2.21c0,0.748,0.179,1.523,0.605,2.174c0.854,1.274,2.442,1.853,4.135,1.853
		c0.445,0,0.926-0.063,1.426-0.125c2.727-0.49,4.668-2.931,4.668-6.282c0-1.265-0.249-2.664-0.891-4.125
		c-2.067-4.847-4.17-6.96-5.793-7.868c-0.587-0.33-1.229-0.49-1.923-0.49C25.809-13.67,24.99-13.411,24.385-12.895z M3.108-12.726
		L3.108-12.726c-0.358-0.071-0.777-0.035-1.168-0.268c-0.49-0.285-0.687-0.775-0.687-1.327c0-0.526,0.197-1.078,0.49-1.434
		c0.392-0.455,1.265-1.105,2.539-1.105c0.677,0,1.524,0.196,2.469,0.722c1.693,0.909,3.19,7.733-1.399,10.104
		c4.552,2.049,2.825,7.387,1.301,8.394C5.868,2.875,5.131,3.107,4.469,3.107c-0.837,0-1.522-0.329-2.012-0.811
		C1.974,1.833,1.682,1.219,1.682,0.729c0-0.125,0-0.259,0.061-0.357c0.161-0.49,0.49-0.677,0.812-0.847
		c0.329-0.16,0.65-0.32,0.65-0.748c0-0.098,0-0.186-0.026-0.285C3.081-1.801,2.813-1.963,2.492-1.963
		c-0.81,0-2.014,0.875-2.014,2.433c0,0.036,0,0.063,0,0.063c0.027,1.497,1.781,3.511,4.16,3.546c0.909,0,1.952-0.196,2.896-1.069
		c2.016-1.889,2.791-5.596,0.357-9.401c2.174-3.02,1.684-6.566,0.775-8.677c-0.97-2.309-3.216-2.995-4.258-2.959
		c-1.88,0-3.154,1.3-3.413,1.595c-0.23,0.294-0.97,1.203-0.97,2.405c0,0.616,0.186,1.301,0.713,2.049
		c0.586,0.811,1.264,1.105,1.853,1.105c0.686,0,1.201-0.428,1.201-0.909l0,0H3.695h0.097C3.829-12.432,3.498-12.698,3.108-12.726z
		 M22.939-13.474L22.939-13.474l-0.034,0.222l0.16-0.124c1.016-0.811,2.281-1.176,3.547-1.079l0.302,0.036l-0.23-0.16
		c-0.731-0.553-1.444-1.042-2.246-1.497c-0.748-0.427-1.532-0.784-2.299-1.104l-0.303-0.099l0.16,0.223
		C22.78-16.076,23.102-14.775,22.939-13.474z M-10.615,5.085L-10.615,5.085c0.491,0.098,0.98,0.133,1.435,0.133
		c1.692,0,3.252-0.552,4.125-1.853c0.454-0.651,0.623-1.435,0.623-2.183c0-0.838-0.257-1.659-0.65-2.21
		C-5.731-1.874-6.641-2.194-7.39-2.194c-0.917,0-1.691,0.491-1.729,1.203c0,0.098,0,0.196,0.037,0.294
		c0.097,0.392,0.356,0.579,0.613,0.579c0.429,0,0.946-0.357,1.462-0.357c0.135,0,0.294,0.037,0.427,0.072
		c0.748,0.285,1.167,1.007,1.167,1.818c0,1.104-0.776,2.308-2.664,2.629c-0.419,0.07-0.811,0.097-1.167,0.097
		c-1.827,0-3.19-1.006-3.875-2.013c-2.041-3.056-1.035-8.714,3.224-8.911c-1.238-2.504,0.063-4.125,1.302-5.097
		c0.58-0.49,1.229-0.687,1.853-0.687c1.167,0,2.175,0.713,2.272,1.426c0.035,0.099,0.035,0.232,0.035,0.33
		c0,0.883-0.65,1.399-1.104,1.399c-0.035,0-0.097,0-0.134,0c-0.418-0.098-0.747-0.134-0.97-0.134c-0.455,0-0.723,0.196-0.784,0.588
		c0,0.035,0,0.098,0,0.134c0,0.356,0.232,0.552,0.489,0.677c0.224,0.098,0.518,0.133,0.652,0.161c0.026,0,0.097,0,0.195,0
		c0.321,0,0.972-0.063,1.56-0.356c0.579-0.295,1.105-0.874,1.167-1.88c0-0.072,0-0.169,0-0.232l0,0c0-1.069-0.418-1.879-1.042-2.405
		c-0.614-0.517-1.426-0.749-2.271-0.749c-0.688,0-1.363,0.161-1.916,0.49c-1.658,0.908-3.777,3.021-5.793,7.868
		c-0.613,1.461-0.908,2.86-0.908,4.125C-15.293,2.128-13.342,4.605-10.615,5.085z M2.616-8.733L2.616-8.733
		c0.366,0,0.723-0.027,1.141-0.161c1.828-0.517,2.505-2.014,2.478-3.252c0-0.971-0.393-1.818-1.016-1.853H5.192
		c-0.749,0.035-1.043,0.33-1.043,0.748c0,0.491,0.321,1.105,0.321,1.657c0,0.366-0.089,0.651-0.454,0.945
		c-0.32,0.258-0.836,0.428-1.424,0.428c-0.848,0-1.756-0.365-2.307-1.274c-0.527-0.91-0.75-1.719-0.75-2.503
		c0-2.628,2.05-4.713,4.678-5.009c1.595-0.186,4.75,0.563,5.792,2.799v0.071c0,0,0,0.027,0.025,0.027v-0.027
		c0,0,0,0.027,0.036,0.027c0,0,0,0,0.037-0.027v-0.098c1.032-2.246,4.187-2.994,5.783-2.797c2.635,0.293,4.685,2.37,4.685,5.006
		c0,0.749-0.231,1.595-0.747,2.504c-0.554,0.936-1.463,1.265-2.308,1.265c-0.591,0-1.142-0.16-1.436-0.418
		c-0.355-0.294-0.453-0.624-0.49-0.945c0-0.552,0.33-1.176,0.33-1.657c0-0.427-0.293-0.721-1.043-0.749h-0.035
		C14.2-14,13.835-13.153,13.835-12.173c0,1.229,0.65,2.727,2.504,3.252c0.392,0.099,0.784,0.161,1.14,0.161
		c2.807,0,4.09-3.021,4.09-3.021s0.356-0.882,0.356-2.084c0-1.72-0.713-4.099-4.117-5.623c-1.986-0.883-6.504-0.909-7.645-0.909
		c-0.034,0-0.034,0-0.061,0c0,0-0.037,0-0.073,0c-1.131,0-5.649,0.063-7.635,0.909c-3.413,1.497-4.126,3.902-4.126,5.623
		c0,1.203,0.356,2.084,0.356,2.084C-1.474-11.754-0.172-8.733,2.616-8.733z M-7.292-10.097L-7.292-10.097
		c0.125-0.026,0.259-0.026,0.383-0.026c0.454,0,0.785,0.196,1.104,0.196c0.268,0,0.491-0.17,0.687-0.562
		c0.062-0.098,0.098-0.223,0.098-0.356c-0.036-0.65-0.882-1.104-1.791-1.104c-0.712,0-1.498,0.293-2.014,1.042
		c-0.322,0.517-0.49,1.007-0.49,1.497c0,1.426,1.302,2.468,2.245,2.761c1.559,0.455,4.616,0.428,5.595,0.428
		c0.125,0,0.225,0,0.356,0c2.015,0,4.651-0.232,6.506-1.471c1.426-0.971,2.566-2.209,2.566-4.125l0,0
		c0-0.33-0.036-0.686-0.134-1.078c-0.481-2.432-1.953-3.279-3.28-3.279c-1.301,0-2.502,0.749-2.502,1.622
		c0,0.133,0.026,0.268,0.097,0.392c0.196,0.392,0.517,0.525,0.713,0.552c0.035,0,0.035,0,0.062,0c0.329,0,0.554-0.223,0.881-0.454
		c0.322-0.222,0.677-0.455,1.204-0.49c0.062,0,0.135,0,0.16,0c1.042,0,1.756,0.944,1.756,2.343c0,0.393-0.124,0.785-0.161,1.239
		C6.323-7.852,1.743-5.9-1.608-9.25c0.038,1.915-1.915,2.183-3.67,2.05C-6.81-7.299-7.941-7.985-7.941-9.054
		C-8.012-9.545-7.72-10-7.292-10.097z M-3.103-13.411l0.169,0.133L-2.97-13.51c-0.16-1.265,0.161-2.601,0.91-3.644l0.16-0.223
		l-0.294,0.098c-0.776,0.321-1.56,0.686-2.309,1.104c-0.775,0.455-1.524,0.945-2.236,1.497l-0.232,0.161l0.295-0.036
		C-5.376-14.579-4.111-14.187-3.103-13.411z"/>
</g>
<linearGradient id="SVGID_3_" gradientUnits="userSpaceOnUse" x1="16656.9434" y1="-22697.9609" x2="16782.2559" y2="-22823.2734" gradientTransform="matrix(0.0178 0 0 -0.0178 -287.9638 -413.1929)">
	<stop  offset="0" style="stop-color:#DBB87D"/>
	<stop  offset="1" style="stop-color:#C49A69"/>
</linearGradient>
<path fill="url(#SVGID_3_)" d="M8.864-7.656L8.864-7.656l0.061,0.063c0.429,0.428,0.784,1.14,0.979,2.014l0.037,0.169l0,0l0,0l0,0
	l0,0L9.968-5.58c0.195-0.874,0.526-1.586,0.98-2.014l0.062-0.063l0,0l-0.062-0.063c-0.429-0.427-0.785-1.141-0.98-2.023l-0.026-0.16
	l0,0l-0.037,0.16C9.709-8.859,9.389-8.146,8.925-7.718L8.864-7.656z"/>
<linearGradient id="SVGID_4_" gradientUnits="userSpaceOnUse" x1="16657.8379" y1="-24224.3047" x2="16783.0508" y2="-24349.5176" gradientTransform="matrix(0.0178 0 0 -0.0178 -287.9638 -413.1929)">
	<stop  offset="0" style="stop-color:#DBB87D"/>
	<stop  offset="1" style="stop-color:#C49A69"/>
</linearGradient>
<path fill="url(#SVGID_4_)" d="M8.864,19.52L8.864,19.52l0.061,0.072c0.429,0.419,0.784,1.131,0.979,2.014l0.037,0.16l0,0l0,0l0,0
	l0,0l0.026-0.16c0.195-0.883,0.526-1.595,0.98-2.014l0.062-0.072l0,0l-0.062-0.062c-0.429-0.42-0.785-1.141-0.98-2.014l-0.026-0.162
	l0,0l-0.037,0.162c-0.195,0.873-0.516,1.594-0.979,2.014L8.864,19.52z"/>
<linearGradient id="SVGID_5_" gradientUnits="userSpaceOnUse" x1="15851.3945" y1="-23337.4746" x2="16057.4141" y2="-23543.4941" gradientTransform="matrix(0.0178 0 0 -0.0178 -287.9638 -413.1929)">
	<stop  offset="0" style="stop-color:#DBB87D"/>
	<stop  offset="1" style="stop-color:#C49A69"/>
</linearGradient>
<path fill="url(#SVGID_5_)" d="M-3.878,0.925c0,0,0.419,1.077-0.168,2.734c-0.554,1.659-0.517,3.868,0.364,4.002
	c1.559,0.186,1.008-3.129,0.775-4.101C-3.068,2.555-3.878,0.925-3.878,0.925"/>
<linearGradient id="SVGID_6_" gradientUnits="userSpaceOnUse" x1="17380.8008" y1="-23481.4883" x2="17588.4551" y2="-23689.1426" gradientTransform="matrix(0.0178 0 0 -0.0178 -287.9638 -413.1929)">
	<stop  offset="0" style="stop-color:#DBB87D"/>
	<stop  offset="1" style="stop-color:#C49A69"/>
</linearGradient>
<path fill="url(#SVGID_6_)" d="M23.726,10.521c0,0-0.429-1.079,0.123-2.735c0.589-1.657,0.536-3.866-0.356-4
	c-1.567-0.197-0.996,3.126-0.783,4.099C22.905,8.891,23.726,10.521,23.726,10.521"/>
<g>
	<path d="M-61.786,13.479v-0.649c1.436-0.196,1.658-0.356,1.363-1.274c-0.293-0.873-0.749-2.14-1.266-3.539h-4.873
		c-0.357,1.036-0.723,1.979-1.008,2.958c-0.49,1.429-0.294,1.659,1.426,1.819v0.65h-4.971v-0.65c1.425-0.196,1.756-0.357,2.565-2.37
		l4.75-12.028l0.712-0.196c1.436,3.929,2.959,8.286,4.421,12.288c0.748,1.986,1.042,2.183,2.539,2.307v0.65h-5.659V13.479z
		 M-64.031,1.219h-0.026c-0.749,1.987-1.47,3.965-2.148,5.854h4.224L-64.031,1.219z"/>
	<path d="M-29.665-0.795c-1.265,0.063-1.818,0.357-1.915,1.364c-0.098,0.686-0.134,1.729-0.134,3.84v9.23h-0.713l-9.756-12.001
		h-0.063v5.756c0,2.12,0.063,3.227,0.134,3.874c0.098,1.168,0.65,1.427,2.21,1.525v0.65h-5.435v-0.65
		c1.335-0.062,1.923-0.357,2.021-1.497c0.063-0.713,0.126-1.817,0.126-3.902V2.359c0-1.657-0.026-1.755-0.455-2.308
		c-0.454-0.588-0.971-0.748-2.049-0.847v-0.65h3.387l9.551,11.511h0.071v-5.63c0-2.111-0.099-3.154-0.16-3.805
		c-0.1-1.033-0.65-1.327-2.246-1.425v-0.65h5.399v0.65H-29.665z"/>
	<path d="M-10.579,13.479v-0.649c1.434-0.196,1.658-0.356,1.364-1.274c-0.286-0.873-0.748-2.14-1.265-3.539h-4.874
		c-0.357,1.036-0.722,1.979-1.007,2.958c-0.525,1.429-0.294,1.659,1.425,1.819v0.65h-4.973v-0.65
		c1.425-0.196,1.756-0.357,2.566-2.37l4.75-12.028l0.713-0.196c1.434,3.929,2.958,8.286,4.419,12.288
		c0.749,1.986,1.043,2.183,2.503,2.307v0.65h-5.622V13.479z M-12.825,1.219h-0.026c-0.748,1.987-1.469,3.965-2.146,5.854h4.223
		L-12.825,1.219z"/>
	<path d="M16.437,2.128c-0.26-1.105-0.455-1.658-0.712-2.05c-0.357-0.553-0.749-0.713-2.469-0.713h-1.632v11.278
		c0,1.829,0.196,2.051,2.379,2.186v0.649H7.436v-0.649c2.075-0.135,2.273-0.356,2.273-2.186V-0.635H8.275
		c-1.879,0-2.37,0.197-2.665,0.713C5.352,0.47,5.156,1.121,4.862,2.128H4.211c0.097-1.301,0.232-2.701,0.258-3.929h0.588
		c0.295,0.356,0.59,0.392,1.141,0.392h9.036c0.525,0,0.722-0.099,1.008-0.392h0.65c0,1.068,0.134,2.602,0.231,3.867L16.437,2.128z"
		/>
	<path d="M35.432,13.479v-0.649c1.427-0.196,1.64-0.356,1.354-1.274c-0.284-0.873-0.749-2.14-1.265-3.539h-4.863
		c-0.358,1.036-0.715,1.979-1.017,2.958c-0.517,1.429-0.302,1.659,1.426,1.819v0.65h-4.973v-0.65
		c1.427-0.196,1.747-0.357,2.566-2.37l4.74-12.028l0.713-0.196c1.443,3.929,2.957,8.286,4.42,12.288
		c0.748,1.986,1.05,2.183,2.529,2.307v0.65h-5.632V13.479z M33.187,1.219h-0.035c-0.713,1.987-1.461,3.965-2.139,5.854h4.206
		L33.187,1.219z"/>
	<path d="M62.804,13.479c-1.746-1.987-3.6-4.232-5.703-6.665c-0.497-0.623-0.836-0.721-1.229-0.65v4.357
		c0,2.014,0.232,2.174,2.12,2.309v0.649h-5.951v-0.649c1.746-0.135,1.96-0.295,1.96-2.309V1.548c0-2.085-0.214-2.218-2.033-2.343
		v-0.65h5.917v0.65C56.141-0.67,55.907-0.5,55.907,1.548V5.54c0.519-0.124,0.98-0.454,1.586-1.034
		c1.284-1.202,2.833-2.797,3.852-4.062c0.641-0.821,0.641-1.043-0.395-1.177l-0.533-0.063v-0.65h5.505v0.65
		c-1.764,0.161-2.263,0.392-3.741,1.721c-0.875,0.81-2.513,2.441-4.063,4c1.729,2.146,4.223,5.007,5.363,6.245
		c1.214,1.302,1.658,1.523,2.798,1.658v0.649H62.804z"/>
	<path d="M91.084,12.793v0.65h-5.471v-0.65c1.444-0.196,1.676-0.357,1.374-1.267c-0.287-0.883-0.751-2.146-1.266-3.544h-4.884
		c-0.357,1.043-0.713,1.987-0.999,2.958c-0.498,1.434-0.283,1.656,1.427,1.817v0.65h-4.972v-0.65
		c1.426-0.195,1.764-0.355,2.566-2.372l4.756-12.027l0.714-0.196c1.426,3.938,2.959,8.296,4.418,12.288
		C89.427,12.402,89.712,12.669,91.084,12.793 M83.367,1.219h-0.016c-0.73,1.987-1.479,3.965-2.156,5.854h4.239L83.367,1.219z"/>
</g>
</svg>
